<?xml version="1.0" encoding="UTF-8"?>
<svg id="Capa_2" xmlns="http://www.w3.org/2000/svg" xmlns:xlink="http://www.w3.org/1999/xlink" viewBox="0 0 227.96 182.44"  width="100px" height="100px">
<defs>
<style>.cls-1{fill:url(#linear-gradient);}.cls-2{fill:#036;}.cls-3{fill:url(#linear-gradient-3);}.cls-4{fill:url(#linear-gradient-4);}.cls-5{fill:url(#linear-gradient-2);}.cls-6{fill:url(#linear-gradient-5);}</style>
<linearGradient id="linear-gradient" x1="44.97" y1="145.5" x2="44.97" y2="18.94" gradientUnits="userSpaceOnUse"><stop offset="0" stop-color="#25657e"/><stop offset="1" stop-color="#036"/></linearGradient>
<linearGradient id="linear-gradient-2" x1="126.92" y1="130.76" x2="126.92" y2="19" gradientUnits="userSpaceOnUse"><stop offset="0" stop-color="#036"/><stop offset="1" stop-color="#25657e"/></linearGradient>
<linearGradient id="linear-gradient-3" x1="67.82" y1="93.15" x2="104.06" y2="56.91" gradientUnits="userSpaceOnUse"><stop offset="0" stop-color="#004d99"/><stop offset="1" stop-color="#3d8cae"/></linearGradient>
<linearGradient id="linear-gradient-4" x1="126.98" y1="134.7" x2="206.42" y2="55.27" xlink:href="#linear-gradient-3"/><linearGradient id="linear-gradient-5" x1="0" y1="91.22" x2="227.96" y2="91.22" xlink:href="#linear-gradient-3"/>
</defs>
<g id="Capa_1-2">
    <path class="cls-2" d="m118.21,131.77s.01.01.02.02v-.02s-.02,0-.02,0Z"/>
    <polygon class="cls-1" points="51.44 141.8 66.04 19.43 42.32 19.43 36.28 19.55 23.89 141.8 51.44 141.8"/>
    <polygon class="cls-5" points="124.69 19.43 118.64 19.55 105.43 130.76 135.35 130.76 148.4 19.43 124.69 19.43"/>
    <polyline class="cls-3" points="66.37 19.43 42.32 19.43 36.28 19.55 61.03 59.74 95.69 114.85 105.43 130.76 135.35 130.76"/>
    <path class="cls-4" d="m203.24,123.22c0-23.55-20.71-30.39-36.74-35.57-11.19-3.51-18.2-6.01-18.2-13.86,0-9.35,9.18-11.86,16.53-11.86s16.2,4.01,21.04,10.18l18.2-19.2c-10.36-9.52-25.38-14.53-38.74-14.53-22.04,0-45.75,10.85-45.75,37.07,0,21.37,15.19,29.05,30.22,33.89,15.53,5.01,24.54,7.84,24.54,16.86,0,9.52-7.68,12.86-16.36,12.86s-18.8-4.86-24.64-11.51l1.81,3.12,19.65,31.85c1.05.05,2.12.08,3.18.08,23.37,0,45.25-12.19,45.25-39.4Z"/>
    <path class="cls-6" d="m175.07,182.44h-.11l-140.55-.73c-10.17-.03-19.35-4.21-25.84-11.46-6.49-7.25-9.45-16.9-8.35-27.02L11.69,37.97C13.94,17.32,32.67.45,53.44.4l139.97-.4c10.26,0,19.42,3.97,25.92,11.18,6.5,7.21,9.49,16.75,8.43,26.85l-11.16,106.69c-2.16,20.62-20.79,37.73-41.52,37.73Zm.49-6.84c16.65,0,33.3-14.3,35.15-31.87l11.04-106.35c.87-8.34-1.63-16.18-6.94-22.08-5.31-5.9-12.91-9.14-21.29-9.14l-140.06.38c-17.73.05-33.72,14.43-35.64,32.06l-11.46,105.22c-.91,8.35,1.51,16.22,6.82,22.15,5.31,5.93,12.86,9.22,21.26,9.24l140.8.39"/>
    <polygon class="cls-2" points="224.5 141.08 224.5 141.09 224.5 141.08 224.5 141.08"/>
</g>
</svg>